<svg width="400" height="400" viewBox="0 0 400 400" fill="none" xmlns="http://www.w3.org/2000/svg">
<rect width="400" height="400" fill="#1E1E1E"/>
<g clip-path="url(#clip0_1_136)">
<path d="M200 202.222C200 191.024 204.448 180.285 212.367 172.367C220.285 164.448 231.024 160 242.222 160C253.42 160 264.16 164.448 272.078 172.367C279.996 180.285 284.444 191.024 284.444 202.222C284.444 213.42 279.996 224.16 272.078 232.078C264.16 239.996 253.42 244.444 242.222 244.444C231.024 244.444 220.285 239.996 212.367 232.078C204.448 224.16 200 213.42 200 202.222V202.222Z" fill="#1ABCFE"/>
<path d="M115.556 286.667C115.556 275.469 120.004 264.729 127.922 256.811C135.84 248.893 146.58 244.444 157.778 244.444H200V286.667C200 297.865 195.552 308.604 187.633 316.522C179.715 324.44 168.976 328.889 157.778 328.889C146.58 328.889 135.84 324.44 127.922 316.522C120.004 308.604 115.556 297.865 115.556 286.667V286.667Z" fill="#0ACF83"/>
<path d="M200 75.5555V160H242.222C253.42 160 264.16 155.552 272.078 147.633C279.996 139.715 284.444 128.976 284.444 117.778C284.444 106.58 279.996 95.8403 272.078 87.9221C264.16 80.0039 253.42 75.5555 242.222 75.5555H200Z" fill="#FF7262"/>
<path d="M115.556 117.778C115.556 128.976 120.004 139.715 127.922 147.633C135.84 155.552 146.58 160 157.778 160H200V75.5555H157.778C146.58 75.5555 135.84 80.0039 127.922 87.9221C120.004 95.8403 115.556 106.58 115.556 117.778V117.778Z" fill="#F24E1E"/>
<path d="M115.556 202.222C115.556 213.42 120.004 224.16 127.922 232.078C135.84 239.996 146.58 244.444 157.778 244.444H200V160H157.778C146.58 160 135.84 164.448 127.922 172.367C120.004 180.285 115.556 191.024 115.556 202.222V202.222Z" fill="#A259FF"/>
</g>
<defs>
<clipPath id="clip0_1_136">
<rect width="168.889" height="253.333" fill="white" transform="translate(115.556 75.5555)"/>
</clipPath>
</defs>
</svg>
